<svg xmlns="http://www.w3.org/2000/svg" viewBox="0 0 500 500"><g id="freepik--Floor--inject-50"><ellipse id="freepik--floor--inject-50" cx="250" cy="344.12" rx="217.82" ry="125.76" style="fill:#f5f5f5"></ellipse></g><g id="freepik--Shadows--inject-50"><ellipse id="freepik--Shadow--inject-50" cx="162.72" cy="374.07" rx="63.37" ry="36.59" style="fill:#e6e6e6"></ellipse><ellipse id="freepik--shadow--inject-50" cx="337.32" cy="372.58" rx="65.96" ry="38.08" style="fill:#e6e6e6"></ellipse></g><g id="freepik--Plants--inject-50"><g id="freepik--plants--inject-50"><path d="M131.33,349.84c.28-.13.27-19.78-8.71-30.93s-19.73-13.22-26.31-10.08-4.42,11.18,4,14.92,19.1,10.48,22.18,23.55Z" style="fill:#7E57C2"></path><g style="opacity:0.2"><path d="M131.33,349.84c.28-.13.27-19.78-8.71-30.93s-19.73-13.22-26.31-10.08-4.42,11.18,4,14.92,19.1,10.48,22.18,23.55Z"></path></g><path d="M128,344.24a.62.62,0,0,1-.64-.5c-4.11-19.75-16.34-28.95-26.42-31a.63.63,0,0,1,.25-1.23c10.47,2.09,23.17,11.59,27.4,31.94a.64.64,0,0,1-.49.75Z" style="fill:#fff"></path><path d="M131.26,376.51l-.26-.11a19.77,19.77,0,0,0-5.45-1.77l-6.65-.85a32.84,32.84,0,0,1-6-1.15,10.77,10.77,0,0,1-5.06-3.25,4.72,4.72,0,0,1-1.13-2.46c-.21-2,1.32-3.65,2.65-5.13a1.3,1.3,0,0,0,.45-1.06c-.11-.43-.61-.62-1-.72-3.42-.78-7-.57-10.4-1.49-2.79-.76-6.26-2.85-6.3-6.13a6.09,6.09,0,0,1,.67-2.87c.36-.64.9-1,.74-1.89-.19-1-1.31-1.47-2.26-1.86-3.63-1.5-9.39-6-6-10.52a10.82,10.82,0,0,1,8.5-3.83,25.38,25.38,0,0,1,9.36,2.09c2.08.81,4,1.93,6.15,2.59,2.53.8,4.33.38,6.7-.7a10,10,0,0,1,6.49-.92c2.69.66,4.83,3.19,6.1,5.53a21.18,21.18,0,0,1,2.6,10.27c-.1,2.42.24,4.93.38,7.35q.45,7.56.89,15.12c.06,1,.57,2.15.41,3.15C132.63,377.12,132.2,376.92,131.26,376.51Z" style="fill:#7E57C2"></path><path d="M132.34,370.76a.65.65,0,0,1-.6-.41c-6.18-16.56-30.77-31.28-38.89-32.14A.63.63,0,1,1,93,337c8.34.88,33.61,16,39.94,33a.63.63,0,0,1-.37.81A.78.78,0,0,1,132.34,370.76Z" style="fill:#fff"></path><path d="M121.69,355.05l-.14,0a.64.64,0,0,1-.44-.78c2.46-8.55.79-14.23.77-14.28a.63.63,0,0,1,1.21-.37c.07.24,1.8,6.06-.76,15A.65.65,0,0,1,121.69,355.05Z" style="fill:#fff"></path><path d="M119.44,353.42a.56.56,0,0,1-.31-.06c-5-2.42-15.54,0-15.65,0a.63.63,0,0,1-.28-1.23c.45-.1,11.06-2.52,16.48.09a.63.63,0,0,1,.29.84A.61.61,0,0,1,119.44,353.42Z" style="fill:#fff"></path></g><path d="M370.31,366.81a88.21,88.21,0,0,1,5-31.26c6.36-18.37,18.47-29.17,27.77-23.87,5.3,3,6.31,6.87-6,18.32-8.36,7.76-19.78,16.91-20.5,32.13Z" style="fill:#7E57C2"></path><path d="M370.31,366.81a88.21,88.21,0,0,1,5-31.26c6.36-18.37,18.47-29.17,27.77-23.87,5.3,3,6.31,6.87-6,18.32-8.36,7.76-19.78,16.91-20.5,32.13Z" style="opacity:0.2"></path><path d="M375.56,355.51a.43.43,0,0,1-.16,0,.58.58,0,0,1-.51-.64c3.13-26.57,20-38.3,25.12-41.26a.57.57,0,0,1,.57,1c-10.27,6-22.12,19.71-24.55,40.41A.56.56,0,0,1,375.56,355.51Z" style="fill:#fff"></path><g id="freepik--plants--inject-50"><path d="M372.43,381.94c.46.3,9.29,3.53,13-.64s-1.36-11.45,2-13.76,11.91.9,14.43-4.28-3.59-7.94.33-13.05c2.47-3.22,8.06-4.71,8.77-7.81,1-4.31-4.31-6-7.61-5.93a17.26,17.26,0,0,0-7.6,2.17c-2.43,1.22-5,2.06-7.16,3.79a10.22,10.22,0,0,0-2.05-2.56,6.07,6.07,0,0,0-5-1.11A9.08,9.08,0,0,0,377,341.3c-5.22,5.11-3.82,14.5-4,21.23q-.27,9-.48,18Z" style="fill:#7E57C2"></path><path d="M372.7,370.15a.5.5,0,0,0,.52-.38c3.74-15.47,22.9-26.88,32.58-28.91a.5.5,0,0,0,.38-.58.49.49,0,0,0-.59-.38c-9.89,2.08-29.49,13.76-33.33,29.64a.5.5,0,0,0,.36.6Z" style="fill:#fff"></path><path d="M395.15,358.63a.49.49,0,0,0,.44-.21.5.5,0,0,0-.12-.69c-.28-.2-7-4.81-14-3.41a.5.5,0,0,0-.39.58.49.49,0,0,0,.58.39c6.63-1.32,13.21,3.2,13.27,3.25A.58.58,0,0,0,395.15,358.63Z" style="fill:#fff"></path><path d="M378.88,358.32a.43.43,0,0,1-.19,0,.49.49,0,0,1-.27-.64,21.12,21.12,0,0,0,1.22-13.28.5.5,0,0,1,.32-.62.49.49,0,0,1,.62.32c.08.25,1.92,6.19-1.24,13.95A.51.51,0,0,1,378.88,358.32Z" style="fill:#fff"></path></g></g><g id="freepik--Lines--inject-50"><g style="opacity:0.05"><path d="M252,168.43a48.17,48.17,0,1,1,48.17-48.17A48.22,48.22,0,0,1,252,168.43Zm0-95.31a47.15,47.15,0,1,0,47.15,47.14A47.2,47.2,0,0,0,252,73.12Z" style="fill:#7E57C2"></path></g><g style="opacity:0.1"><path d="M252,160.89a40.63,40.63,0,1,1,40.63-40.63A40.67,40.67,0,0,1,252,160.89Zm0-80.24a39.61,39.61,0,1,0,39.61,39.61A39.66,39.66,0,0,0,252,80.65Z" style="fill:#7E57C2"></path></g><g style="opacity:0.2"><path d="M252,153.36a33.1,33.1,0,1,1,33.1-33.1A33.13,33.13,0,0,1,252,153.36Zm0-65.17a32.08,32.08,0,1,0,32.08,32.07A32.1,32.1,0,0,0,252,88.19Z" style="fill:#7E57C2"></path></g><g style="opacity:0.30000000000000004"><path d="M252,145.82a25.56,25.56,0,1,1,25.56-25.56A25.59,25.59,0,0,1,252,145.82Zm0-50.1a24.54,24.54,0,1,0,24.54,24.54A24.57,24.57,0,0,0,252,95.72Z" style="fill:#7E57C2"></path></g><g style="opacity:0.4"><path d="M252,138.29a18,18,0,1,1,18-18A18.05,18.05,0,0,1,252,138.29Zm0-35a17,17,0,1,0,17,17A17,17,0,0,0,252,103.26Z" style="fill:#7E57C2"></path></g></g><g id="freepik--Characters--inject-50"><path d="M262.35,131.5C272.18,138.44,295,149,295,149c3.22-5.67,12.58-21.91,17.72-29.21s9.52-10.23,19.32-9.4l-9.8,25.62s-16.72,27-18.14,28.88-1.77,2.53-4.66,3.11-9.44-2.64-13.29-5.1c-4.36-2.78-29.06-22.21-29.06-22.21" style="fill:#b16668"></path><g id="freepik--Character--inject-50"><path d="M373.73,362.11a62.8,62.8,0,0,1,1,10.3c.12,6.25,1.27,8.47,1.42,13.6.18,5.87-.84,8.06-3.22,11.36s-8.62,6.29-11.26.71-2.3-9.22-1.46-15c.87-5.95,1-9.23,1.49-13.77.45-4,1-7,1-7Z" style="fill:#263238"></path><path d="M356,312.93l20.6-.37c-.31,13.75-2.49,36.64-2.85,49.55-.07,2.43.06,18.87-.85,23.87-1.38,7.5-10.29,6.49-10.77,2s.58-23.69.55-25.67c.08-8.28-3.8-29.87-5.83-44.73C356.73,316.85,356.07,313.64,356,312.93Z" style="fill:#b16668"></path><path d="M325.7,351.41s1.07.06,1.24.92c.2,1,.24,2.67.67,4.36.6,2.36,1.09,6.24.73,8.16s-4.74,4.78-7.73,5.28-7.23,3.47-9.58,5.68c-2.88,2.71-9.09,5.27-13.32,5.24-5,0-8.49-1.67-10.14-4.35s1.5-3,7.22-6.72c1.3-.84,2.78-1.79,4.44-2.88,9.06-5.92,12.38-9.09,14.94-15Z" style="fill:#263238"></path><path d="M314.1,348.19c.15-4.26-2-35.63-2-35.63l17.72,2c-4.19,25-4.53,33.53-4.05,37.17h0a3.45,3.45,0,0,1,.11,1c0,4.85-5.5,7.47-9.78,10.71-1.69,1.28-6,5.22-11.12,7-3.29,1.12-9.37,1.54-10.16-.46,5.21-4,12.29-9.16,16.43-13.7C313.2,354.11,314,352.44,314.1,348.19Z" style="fill:#b16668"></path><path d="M367.46,180.15c9.34,21.25,4,85.2,4,85.2.29,3.43,4.21,10.17,5.67,25.25,1.72,17.82-3.18,65.51-3.18,65.51s-4.71,3.52-11.54.25c0,0-12.47-70.09-14.71-87.8-1.95-15.46-7.4-47.58-7.4-47.58l-8.93,47.5a92,92,0,0,1,3.37,15.26c1,10.42-9.13,62.71-9.13,62.71s-4.75,2.51-11.5-.22c0,0-4.49-67.57-5.44-80.12-1.26-16.81,1.61-62.79,5.45-86.37Z" style="fill:#7E57C2"></path><path d="M367.46,180.15c9.34,21.25,4,85.2,4,85.2.29,3.43,4.21,10.17,5.67,25.25,1.72,17.82-3.18,65.51-3.18,65.51s-4.71,3.52-11.54.25c0,0-12.47-70.09-14.71-87.8-1.95-15.46-7.4-47.58-7.4-47.58l-8.93,47.5a92,92,0,0,1,3.37,15.26c1,10.42-9.13,62.71-9.13,62.71s-4.75,2.51-11.5-.22c0,0-4.49-67.57-5.44-80.12-1.26-16.81,1.61-62.79,5.45-86.37Z" style="opacity:0.7000000000000001"></path><path d="M340.29,221,338,205.24s-13.29-1.77-19.31-7.43a21.81,21.81,0,0,0,15.66,9.9l2.35,14.23-4.07,41.25Z" style="opacity:0.4"></path><path d="M342.11,103.33h.05A27.29,27.29,0,0,0,369.44,76h0a25.8,25.8,0,0,0-25.81-25.8h-3A25.81,25.81,0,0,0,314.82,76h0A27.29,27.29,0,0,0,342.11,103.33Z" style="fill:#263238"></path><path d="M365.85,50.36c-1.54,4.82-7.4,7.26-13.09,5.44s-9-7.21-7.49-12,7.4-7.27,13.09-5.45S367.4,45.53,365.85,50.36Z" style="fill:#263238"></path><path d="M347.81,44.91c.75,3.43-1.91,6.93-6,7.82s-7.93-1.18-8.68-4.62,1.92-6.93,6-7.81S347.06,41.48,347.81,44.91Z" style="fill:#263238"></path><path d="M369.11,64c-3.33,1.37-7.34-.71-8.95-4.63s-.21-8.22,3.13-9.58,7.33.71,8.94,4.63S372.44,62.64,369.11,64Z" style="fill:#263238"></path><path d="M352.05,110.83h0c4,.27,7.12.83,9.13,2a11.42,11.42,0,0,1,6.28,10.68c.06,5.43-1.25,8.91-2.9,17.85l-2.24,15.75c-.84,5.74,5.46,12.47,6.52,26-15.92,8.88-34.79,7.65-46,2.85-3.82-1.64-7.08-4-8.71-6.16,1.85-9.76,2.55-9.62,3.52-18.53a63.4,63.4,0,0,0,.6-10.86c-5.09-6.56-7.82-13-5.24-18.88,5.24-12,15.05-21.6,20.1-21.19Z" style="fill:#ebebeb"></path><path d="M362.32,157.06l2.24-15.75c1.65-8.94,3-12.42,2.9-17.85a13.64,13.64,0,0,0-.84-4.72l-6.3-2-5.53,4s-1.84,11.78,1.1,18.41,2.55,14.4,0,18.69-5.49,5.45-1.2,10.22,4.36,12.81-2.18,16.7-19.89,3.41-27.6,1.91c11.38,4.09,29,4.68,43.93-3.67C367.78,169.53,361.48,162.8,362.32,157.06Z" style="fill:#e0e0e0"></path><path d="M389,163.43c-2.55-9.94-13.36-31.68-16.43-39.66-3.5-9.12-9.54-12.34-16.05-12.43-2.4,3.09-3.4,18.62,4,27.51C363.68,145.47,373.1,164,373.1,164c-.24,1.78-6.83,24.84-9.63,30.9a4.76,4.76,0,0,1-2.48,2.38c-2.91,1.27-6.32,4.45-8.64,6.25-1.81,1.41-3.21,1.62-3.08,2.17a2.6,2.6,0,0,0,3.13,1.67,41.88,41.88,0,0,0,5.77-2.32,72,72,0,0,1-5.77,7.89c-3.91,4.51-3.78,8.37,3.84,8.49,5.77.09,8.81-3.15,13.92-13,1.47-2.85,3.09-7.12,4.85-10.78,4.45-9.25,7.26-13.08,9.69-19C388.54,169.3,390,167.26,389,163.43Z" style="fill:#b16668"></path><path d="M366.93,43.23,365.17,50a3.39,3.39,0,0,0,4.3-2.37A3.66,3.66,0,0,0,366.93,43.23Z" style="fill:#263238"></path><path d="M372.24,46.25l-5.85,3.84a3.4,3.4,0,0,0,4.79,1.12A3.68,3.68,0,0,0,372.24,46.25Z" style="fill:#263238"></path><path d="M324.35,61.85c-2.88,1.7-6.45,9-6.1,24.16.3,12.89,4.48,16.08,6.58,17s6.14.35,10.08-.3v7.73s-5.44,6.32-5.1,9.87,7.85,4.38,12.94.92a33.16,33.16,0,0,0,8.35-8.74v-20s2.15,2.28,6-.33a7,7,0,0,0,1.8-10.2c-1.65-2-5.87-2.09-7.9.94,0,0-5.28-.46-13.63-5A26.93,26.93,0,0,1,324.35,61.85Z" style="fill:#b16668"></path><path d="M334.09,82.78a1.62,1.62,0,1,0,1.7-1.61A1.67,1.67,0,0,0,334.09,82.78Z" style="fill:#263238"></path><path d="M332.21,93.7l-3.76,1.2a1.94,1.94,0,0,0,2.45,1.35A2.06,2.06,0,0,0,332.21,93.7Z" style="fill:#9a4a4d"></path><path d="M319.72,77.8,323,75.53a1.92,1.92,0,0,0-2.73-.56A2.09,2.09,0,0,0,319.72,77.8Z" style="fill:#263238"></path><path d="M320.47,81.6a1.62,1.62,0,1,0,1.71-1.6A1.65,1.65,0,0,0,320.47,81.6Z" style="fill:#263238"></path><polygon points="329.47 80.68 329.21 90.43 324.08 88.84 329.47 80.68" style="fill:#9a4a4d"></polygon><path d="M334.91,102.71c4.14-.54,12.67-3,14-6.37a8.82,8.82,0,0,1-3,4.31c-2.55,2.18-11,4.64-11,4.64Z" style="fill:#9a4a4d"></path></g><path d="M259.7,126.08c-.05-1.64-.09-3.29-.13-4.93a22.59,22.59,0,0,0-.14-2.33c-.1-.85-.29-1.68-.47-2.51-1.17-5.16-1.57-9.9-2.74-15.06a2.15,2.15,0,0,0-.3-.81.73.73,0,0,0-.74-.32,1,1,0,0,0-.45.34,7.37,7.37,0,0,0-1.59,3.71,21.4,21.4,0,0,0-.14,4.08c0,.93.06,1.87.08,2.8a18.54,18.54,0,0,1-.46,4.93,14.18,14.18,0,0,0-.36,1.87c-.27,2.75,1.15,4.87.38,7.25a32.2,32.2,0,0,0-1.31,7.36c-.32,4.31,2.37,5.32,5.8,8.27l5.22-9.23C259.92,129.3,259.74,127.77,259.7,126.08Z" style="fill:#b16668"></path><path d="M251.67,124.8c-.68-2.57.93-5,.69-7.67-.06-.61-.22-1.21-.32-1.82a21.31,21.31,0,0,1,0-5.47c.09-1,.17-2,.25-3a22.6,22.6,0,0,0,.1-4.35,7.9,7.9,0,0,0-1.47-4,1,1,0,0,0-.46-.38.78.78,0,0,0-.81.29,2.54,2.54,0,0,0-.37.84c-1.54,5.43-2.25,10.43-3.79,15.86a26.61,26.61,0,0,0-.66,2.63c-.14.82-.21,1.65-.28,2.48-.14,1.74-.29,3.49-.43,5.24a7.3,7.3,0,0,1-2.94,6.06l4.16,11c3.81-3.73,7.38-5.15,7.29-9.75A34.57,34.57,0,0,0,251.67,124.8Z" style="fill:#ffa8a7"></path><path d="M248.37,125.88a9.17,9.17,0,0,1,.68-1.55q2.55-4.85,5.09-9.69c.29-.54.78-1.18,1.37-1a1.23,1.23,0,0,1,.68,1,11.42,11.42,0,0,1-.66,6.2,32.49,32.49,0,0,0-1.12,4c-.2,1.14-.12,2.28-.25,3.42a21.05,21.05,0,0,1-2,7c-1.08,2.17-3.51-4-3.51-4-.39-1-.06-2.31-.32-3.33A3.57,3.57,0,0,1,248.37,125.88Z" style="fill:#ffa8a7"></path><path d="M256,125.92a8.69,8.69,0,0,0-.59-1.59q-2.28-5-4.55-10c-.26-.56-.71-1.22-1.31-1.07a1.21,1.21,0,0,0-.73.91,11.42,11.42,0,0,0,.31,6.23,31.15,31.15,0,0,1,.9,4c.13,1.15,0,2.28.06,3.43.15,2.45-.24,4.35,1.12,7.18a12.17,12.17,0,0,0,3.65,3.78c1.13.75.55-7.58.55-7.58.44-.94.18-2.3.5-3.3A3.64,3.64,0,0,0,256,125.92Z" style="fill:#b16668"></path><path d="M189.34,125.49c6.18,7.21,16.66,20.62,21.8,26.15l30-20.14,6.84,8.38s-21.14,20.4-25.48,23.78c-3.83,3-8.48,7.27-13.16,7.26-3.15,0-4.5-.46-8.75-4.7l-23.51-23.47-11.22-28.17C176,113.61,183.09,118.19,189.34,125.49Z" style="fill:#ffa8a7"></path><path d="M167.49,114.26s11.19-1,17.58,6.38c4.25,4.9,20.7,23.68,20.7,23.68s-.11,13.69-12.43,17.42L167.49,139.2Z" style="fill:#455a64"></path><rect x="131.4" y="356.37" width="11.45" height="20.41" style="fill:#ffa8a7"></rect><polygon points="171.08 355.29 182.52 355.69 183.1 334.1 171.08 333.69 171.08 355.29" style="fill:#ffa8a7"></polygon><path d="M130.63,179.74c-1.23,14.09.84,102.94.84,102.94-.27,3.28-3.22,9.32-2.58,21.9.87,17.09,2,62,2,62a14.53,14.53,0,0,0,12.74.26s10.83-62.2,12.88-79.14c1.79-14.78,4.83-64.54,4.83-64.54l6.2,57.86A70.52,70.52,0,0,0,166.14,300c.54,7.84,4.22,48.64,4.22,48.64s5.39,3.8,13.21,1c0,0,6.52-61.44,6.65-68.63.15-8.2-3.81-101.45-3.81-101.45Z" style="fill:#37474f"></path><path d="M142.85,370.9v-1.71c1.09.5,3.64,10.61,8.18,14.92,3.61,3.43,8.53,7.4,9.78,11.22,1.31,4-6.85,6.17-10.23,5.55-3.92-.72-10.71-3.6-12.41-6.26s-2.51-6.6-3.89-8.55-4.58-4.13-5.33-6.39c-.41-1.24.08-4,.65-6.26.53-2.11,1.11-4.43,1.8-4.23v1.3c.83,1,3.13,1.91,5.72,2C138.8,372.57,142.86,372.23,142.85,370.9Z" style="fill:#263238"></path><path d="M182.64,352c.6,0,1.08.89,2.39,2.37a25.23,25.23,0,0,0,6.74,5.05c4.28,2.23,12.61,5.67,16.39,7.44,2.35,1.1,2.24,4.07-.19,5.75s-8.32,2.91-15.38,1.26c-3.84-.89-8.85-4.59-12-4.39s-9.1.15-11.44-1.53-1.4-5.27-.74-8.35c.72-3.36,1.63-8.61,2.69-8.38v1.16c1.38,2.17,8.48,3.06,11.5,1.46Z" style="fill:#263238"></path><path d="M161.36,223.16a42,42,0,0,0,15.94-9.52s-3.08,6-12.22,11.58L167,276.89Z" style="fill:#263238"></path><path d="M135.26,115.51s-8.47,2.91-7.84,20l2,27.18.91,39.9c8.42,9.54,44.3,9.89,57.07.29,0,0-1-48.44-1.84-67-.61-13.21-4.52-21.32-17.95-21.56l-15.19-1.06Z" style="fill:#7E57C2"></path><g style="opacity:0.3"><path d="M135.26,115.51s-8.47,2.91-7.84,20l2,27.18.91,39.9c8.42,9.54,44.3,9.89,57.07.29,0,0-1-48.44-1.84-67-.61-13.21-4.52-21.32-17.95-21.56l-15.19-1.06Z"></path></g><path d="M151.31,74.62c0,9.8,7.63,17.75,17,17.75s17-8,17-17.75-7.63-17.75-17-17.75S151.31,64.82,151.31,74.62Z" style="fill:#263238"></path><path d="M139.53,85.83s2.61,12.79,3.66,14.89a5.6,5.6,0,0,0,3.21,2.7l-.18-9Z" style="fill:#263238"></path><path d="M142.81,67.51s-1.88-.47-3.87,2.64c-1.7,2.67-2.09,8.66.59,15.68l4.92.59Z" style="fill:#263238"></path><path d="M145.93,86.42c-1,.62-1.75-1.5-3-2.83s-4.71-2.81-6.69,1.54a7.78,7.78,0,0,0,3.56,10,5.6,5.6,0,0,0,6.11-.72l.68,22.36c7.16,11.08,23.38,10.68,17.55-.53l0-8.28s4.89.77,7.27.39c4-.64,6.46-3.9,7.66-8.37,1.93-7.18,2.67-13,1-27.1-1.8-15.48-19.08-15.64-28.42-9.52S145.93,86.42,145.93,86.42Z" style="fill:#ffa8a7"></path><path d="M145.93,88.15c-.5,0-1.73-3.4-3-4.56-1.71-1.61-.16-16.08-.16-16.08a7.13,7.13,0,0,1,1.64-7.39c2.33-2.67,6.23-3,12.89-4.06a72.42,72.42,0,0,0,7.89-1.42c2.7-.77,5.37-2.56,7.89-3.84a3.91,3.91,0,0,1,2.67-.62,2.61,2.61,0,0,1,1.69,1.93,7.54,7.54,0,0,1,.05,2.68c1.55-1.7,4.56-1.45,6.13.22a6.23,6.23,0,0,1,1,6.46,11.49,11.49,0,0,1-4.46,5.11c-8.37,5.65-18.24,4.08-27.61,3a2.5,2.5,0,0,0-1.33.09c-1.46.66-1.78,5.22-2,6.53C148.32,80.61,147.6,88.12,145.93,88.15Z" style="fill:#263238"></path><path d="M142.59,68l-5-4.66a3.23,3.23,0,0,1,4.76-.44A3.79,3.79,0,0,1,142.59,68Z" style="fill:#263238"></path><path d="M142.6,68.18,136,70a3.24,3.24,0,0,1,2.1-4.3A3.78,3.78,0,0,1,142.6,68.18Z" style="fill:#263238"></path><path d="M164.16,108s-8.85-1.86-11.95-3.57a10.39,10.39,0,0,1-4.27-4.41,14.79,14.79,0,0,0,2.43,5.2c2.26,3,13.79,5.23,13.79,5.23Z" style="fill:#f28f8f"></path><path d="M160.89,77.22l-3.8,2.18a2.44,2.44,0,0,1,.89-3.15A2.07,2.07,0,0,1,160.89,77.22Z" style="fill:#263238"></path><path d="M164.82,96.88l4.05,1.58a2.1,2.1,0,0,1-2.75,1.4A2.39,2.39,0,0,1,164.82,96.88Z" style="fill:#f28f8f"></path><path d="M180.08,78.87l-4-1.94a2.06,2.06,0,0,1,2.83-1.14A2.47,2.47,0,0,1,180.08,78.87Z" style="fill:#263238"></path><path d="M178.17,83.59a1.78,1.78,0,1,1-1.78-1.92A1.86,1.86,0,0,1,178.17,83.59Z" style="fill:#263238"></path><path d="M163.63,83.92A1.78,1.78,0,1,1,161.86,82,1.86,1.86,0,0,1,163.63,83.92Z" style="fill:#263238"></path><polygon points="168.87 82.22 169.07 93.42 175.43 91.97 168.87 82.22" style="fill:#f28f8f"></polygon><path d="M101.79,170.92c3.63-11.35,13.57-31.67,16.95-40.46,3.86-10,6.43-13.86,17.55-15.09,2.64,3.41,3.88,21.91-4.26,31.71-3.46,7.29-12.65,29.08-12.65,29.08.26,2,6.33,26,9.41,32.66a5.36,5.36,0,0,0,2.74,2.63c3.2,1.39,7,4.9,9.51,6.88,2,1.55,3.54,1.78,3.4,2.39a2.87,2.87,0,0,1-3.45,1.84,44.66,44.66,0,0,1-6.35-2.56,78.14,78.14,0,0,0,6.35,8.69c4.31,5,4.16,9.23-4.23,9.36-6.36.1-9.7-3.48-15.33-14.36-1.62-3.13-3.4-7.84-5.34-11.88-4.91-10.18-7.54-15.31-10.43-21.74C100,177.53,100.46,175.07,101.79,170.92Z" style="fill:#ffa8a7"></path><path d="M138.49,115.08s-8.66-.26-13.87,3.56-6.64,9.75-10.33,17.76-9.47,22.15-9.47,22.15a28.91,28.91,0,0,0,20,7.67l10.82-21.88S141.44,129.84,138.49,115.08Z" style="fill:#455a64"></path></g></svg>